<?xml version="1.0" encoding="UTF-8"?>
<mxfile host="app.diagrams.net" modified="2025-01-15T12:00:00.000Z" agent="5.0" etag="TtalKkak-System-v1.0-fixed" version="24.7.17" type="device">
  <diagram name="TtalKkak System Architecture" id="ttalkkak-system-architecture">
    <mxGraphModel dx="2074" dy="1196" grid="1" gridSize="10" guides="1" tooltips="1" connect="1" arrows="1" fold="1" page="1" pageScale="1" pageWidth="2336" pageHeight="1654" math="0" shadow="0">
      <root>
        <mxCell id="0" />
        <mxCell id="1" parent="0" />
        
        <!-- Title -->
        <mxCell id="title" value="TtalKkak AI 프로젝트 관리 시스템 아키텍처" style="text;html=1;strokeColor=none;fillColor=none;align=center;verticalAlign=middle;whiteSpace=wrap;rounded=0;fontSize=24;fontStyle=1;fontColor=#1976D2;" vertex="1" parent="1">
          <mxGeometry x="668" y="20" width="1000" height="50" as="geometry" />
        </mxCell>
        
        <!-- 1. User Input Layer -->
        <mxCell id="user_layer" value="👥 사용자 입력 레이어" style="rounded=1;whiteSpace=wrap;html=1;fillColor=#E3F2FD;strokeColor=#1976D2;strokeWidth=2;fontSize=16;fontStyle=1;" vertex="1" parent="1">
          <mxGeometry x="80" y="100" width="300" height="200" as="geometry" />
        </mxCell>
        
        <mxCell id="user" value="👤 사용자" style="rounded=1;whiteSpace=wrap;html=1;fillColor=#BBDEFB;strokeColor=#1976D2;strokeWidth=2;fontSize=14;" vertex="1" parent="1">
          <mxGeometry x="190" y="150" width="80" height="40" as="geometry" />
        </mxCell>
        
        <mxCell id="slack_command" value="/tk start 명령어" style="rounded=1;whiteSpace=wrap;html=1;fillColor=#90CAF9;strokeColor=#1976D2;strokeWidth=2;fontSize=12;" vertex="1" parent="1">
          <mxGeometry x="100" y="210" width="80" height="50" as="geometry" />
        </mxCell>
        
        <mxCell id="voice_upload" value="🎤 음성파일 업로드" style="rounded=1;whiteSpace=wrap;html=1;fillColor=#90CAF9;strokeColor=#1976D2;strokeWidth=2;fontSize=12;" vertex="1" parent="1">
          <mxGeometry x="190" y="210" width="80" height="50" as="geometry" />
        </mxCell>
        
        <mxCell id="text_input" value="📝 텍스트 입력" style="rounded=1;whiteSpace=wrap;html=1;fillColor=#90CAF9;strokeColor=#1976D2;strokeWidth=2;fontSize=12;" vertex="1" parent="1">
          <mxGeometry x="280" y="210" width="80" height="50" as="geometry" />
        </mxCell>
        
        <!-- 2. Slack Processing Layer -->
        <mxCell id="slack_layer" value="💬 Slack 처리 레이어" style="rounded=1;whiteSpace=wrap;html=1;fillColor=#FFF3E0;strokeColor=#F57C00;strokeWidth=2;fontSize=16;fontStyle=1;" vertex="1" parent="1">
          <mxGeometry x="420" y="100" width="350" height="200" as="geometry" />
        </mxCell>
        
        <mxCell id="slack_bot" value="🤖 Slack Bot App" style="rounded=1;whiteSpace=wrap;html=1;fillColor=#FFCC80;strokeColor=#F57C00;strokeWidth=2;fontSize=12;" vertex="1" parent="1">
          <mxGeometry x="440" y="150" width="120" height="60" as="geometry" />
        </mxCell>
        
        <mxCell id="modal_ui" value="📋 Modal UI" style="rounded=1;whiteSpace=wrap;html=1;fillColor=#FFB74D;strokeColor=#F57C00;strokeWidth=2;fontSize=12;" vertex="1" parent="1">
          <mxGeometry x="580" y="150" width="100" height="60" as="geometry" />
        </mxCell>
        
        <mxCell id="oauth_buttons" value="🔗 OAuth 연동 버튼" style="rounded=1;whiteSpace=wrap;html=1;fillColor=#FFB74D;strokeColor=#F57C00;strokeWidth=2;fontSize=12;" vertex="1" parent="1">
          <mxGeometry x="440" y="220" width="120" height="60" as="geometry" />
        </mxCell>
        
        <mxCell id="webhook_sender" value="📡 Webhook" style="rounded=1;whiteSpace=wrap;html=1;fillColor=#FFA726;strokeColor=#F57C00;strokeWidth=2;fontSize=12;" vertex="1" parent="1">
          <mxGeometry x="580" y="220" width="100" height="60" as="geometry" />
        </mxCell>
        
        <!-- 3. Backend Processing Layer -->
        <mxCell id="backend_layer" value="🏗️ 백엔드 처리 레이어" style="rounded=1;whiteSpace=wrap;html=1;fillColor=#F3E5F5;strokeColor=#7B1FA2;strokeWidth=2;fontSize=16;fontStyle=1;" vertex="1" parent="1">
          <mxGeometry x="80" y="340" width="690" height="200" as="geometry" />
        </mxCell>
        
        <mxCell id="express_server" value="⚡ Express.js Server\nPort: 3500" style="rounded=1;whiteSpace=wrap;html=1;fillColor=#E1BEE7;strokeColor=#7B1FA2;strokeWidth=2;fontSize=12;" vertex="1" parent="1">
          <mxGeometry x="100" y="380" width="140" height="80" as="geometry" />
        </mxCell>
        
        <mxCell id="slack_handler" value="🎯 Slack Handler" style="rounded=1;whiteSpace=wrap;html=1;fillColor=#D1C4E9;strokeColor=#7B1FA2;strokeWidth=2;fontSize=12;" vertex="1" parent="1">
          <mxGeometry x="260" y="380" width="120" height="80" as="geometry" />
        </mxCell>
        
        <mxCell id="ai_service" value="🤖 AI Service" style="rounded=1;whiteSpace=wrap;html=1;fillColor=#D1C4E9;strokeColor=#7B1FA2;strokeWidth=2;fontSize=12;" vertex="1" parent="1">
          <mxGeometry x="400" y="380" width="110" height="80" as="geometry" />
        </mxCell>
        
        <mxCell id="notion_service" value="📝 Notion Service" style="rounded=1;whiteSpace=wrap;html=1;fillColor=#D1C4E9;strokeColor=#7B1FA2;strokeWidth=2;fontSize=12;" vertex="1" parent="1">
          <mxGeometry x="530" y="380" width="110" height="80" as="geometry" />
        </mxCell>
        
        <mxCell id="jira_service" value="🎫 JIRA Service" style="rounded=1;whiteSpace=wrap;html=1;fillColor=#D1C4E9;strokeColor=#7B1FA2;strokeWidth=2;fontSize=12;" vertex="1" parent="1">
          <mxGeometry x="660" y="380" width="110" height="80" as="geometry" />
        </mxCell>
        
        <!-- 4. AI Processing Layer -->
        <mxCell id="ai_layer" value="🤖 AI 처리 레이어 (RunPod A100)" style="rounded=1;whiteSpace=wrap;html=1;fillColor=#FFF8E1;strokeColor=#FFA000;strokeWidth=2;fontSize=16;fontStyle=1;" vertex="1" parent="1">
          <mxGeometry x="820" y="100" width="500" height="440" as="geometry" />
        </mxCell>
        
        <mxCell id="ai_server" value="🚀 AI Server\nFastAPI Python" style="rounded=1;whiteSpace=wrap;html=1;fillColor=#FFE082;strokeColor=#FFA000;strokeWidth=2;fontSize=12;" vertex="1" parent="1">
          <mxGeometry x="840" y="150" width="150" height="80" as="geometry" />
        </mxCell>
        
        <mxCell id="stt_engine" value="🎤 Whisper Large-v3\nSpeech-to-Text" style="rounded=1;whiteSpace=wrap;html=1;fillColor=#FFCC02;strokeColor=#FFA000;strokeWidth=2;fontSize=12;" vertex="1" parent="1">
          <mxGeometry x="1010" y="150" width="130" height="80" as="geometry" />
        </mxCell>
        
        <mxCell id="llm_engine" value="🧠 Qwen3-32B-AWQ\nLLM Engine" style="rounded=1;whiteSpace=wrap;html=1;fillColor=#FFB300;strokeColor=#FFA000;strokeWidth=2;fontSize=12;" vertex="1" parent="1">
          <mxGeometry x="1160" y="150" width="130" height="80" as="geometry" />
        </mxCell>
        
        <mxCell id="prd_generator" value="📄 PRD Generator" style="rounded=1;whiteSpace=wrap;html=1;fillColor=#FFCC02;strokeColor=#FFA000;strokeWidth=2;fontSize=12;" vertex="1" parent="1">
          <mxGeometry x="840" y="250" width="110" height="60" as="geometry" />
        </mxCell>
        
        <mxCell id="task_generator" value="⚙️ Task Generator" style="rounded=1;whiteSpace=wrap;html=1;fillColor=#FFCC02;strokeColor=#FFA000;strokeWidth=2;fontSize=12;" vertex="1" parent="1">
          <mxGeometry x="960" y="250" width="110" height="60" as="geometry" />
        </mxCell>
        
        <mxCell id="subtask_generator" value="🔧 Subtask Generator" style="rounded=1;whiteSpace=wrap;html=1;fillColor=#FFCC02;strokeColor=#FFA000;strokeWidth=2;fontSize=12;" vertex="1" parent="1">
          <mxGeometry x="1080" y="250" width="110" height="60" as="geometry" />
        </mxCell>
        
        <mxCell id="assignment_engine" value="👥 Assignment Engine" style="rounded=1;whiteSpace=wrap;html=1;fillColor=#FFCC02;strokeColor=#FFA000;strokeWidth=2;fontSize=12;" vertex="1" parent="1">
          <mxGeometry x="1200" y="250" width="100" height="60" as="geometry" />
        </mxCell>
        
        <mxCell id="ai_metrics" value="📊 AI 성능 지표\n평균 처리: 45초\n성공률: 98.5%" style="rounded=1;whiteSpace=wrap;html=1;fillColor=#FFE57F;strokeColor=#FFA000;strokeWidth=2;fontSize=11;" vertex="1" parent="1">
          <mxGeometry x="840" y="330" width="150" height="80" as="geometry" />
        </mxCell>
        
        <mxCell id="gpu_info" value="🖥️ GPU 리소스\nNVIDIA A100 80GB\n온도: 65°C" style="rounded=1;whiteSpace=wrap;html=1;fillColor=#FFE57F;strokeColor=#FFA000;strokeWidth=2;fontSize=11;" vertex="1" parent="1">
          <mxGeometry x="1010" y="330" width="130" height="80" as="geometry" />
        </mxCell>
        
        <mxCell id="model_performance" value="⚡ 모델 성능\n동시 처리: 5세션\nGPU 사용률: 70%" style="rounded=1;whiteSpace=wrap;html=1;fillColor=#FFE57F;strokeColor=#FFA000;strokeWidth=2;fontSize=11;" vertex="1" parent="1">
          <mxGeometry x="1160" y="330" width="130" height="80" as="geometry" />
        </mxCell>
        
        <!-- 5. Database Layer -->
        <mxCell id="database_layer" value="🗄️ 데이터베이스 레이어" style="rounded=1;whiteSpace=wrap;html=1;fillColor=#E8F5E8;strokeColor=#388E3C;strokeWidth=2;fontSize=16;fontStyle=1;" vertex="1" parent="1">
          <mxGeometry x="80" y="580" width="690" height="160" as="geometry" />
        </mxCell>
        
        <mxCell id="postgresql" value="🐘 PostgreSQL\nPort: 5432" style="rounded=1;whiteSpace=wrap;html=1;fillColor=#A5D6A7;strokeColor=#388E3C;strokeWidth=2;fontSize=12;" vertex="1" parent="1">
          <mxGeometry x="100" y="620" width="120" height="80" as="geometry" />
        </mxCell>
        
        <mxCell id="prisma_orm" value="🔧 Prisma ORM\n타입 안전성" style="rounded=1;whiteSpace=wrap;html=1;fillColor=#81C784;strokeColor=#388E3C;strokeWidth=2;fontSize=12;" vertex="1" parent="1">
          <mxGeometry x="240" y="620" width="120" height="80" as="geometry" />
        </mxCell>
        
        <mxCell id="redis_cache" value="⚡ Redis Cache\n세션 캐시" style="rounded=1;whiteSpace=wrap;html=1;fillColor=#66BB6A;strokeColor=#388E3C;strokeWidth=2;fontSize=12;" vertex="1" parent="1">
          <mxGeometry x="380" y="620" width="120" height="80" as="geometry" />
        </mxCell>
        
        <mxCell id="db_tables" value="📊 Database Tables\nUsers, Sessions, Projects\nTasks, Subtasks, Logs" style="rounded=1;whiteSpace=wrap;html=1;fillColor=#C8E6C9;strokeColor=#388E3C;strokeWidth=2;fontSize=12;" vertex="1" parent="1">
          <mxGeometry x="520" y="620" width="220" height="80" as="geometry" />
        </mxCell>
        
        <!-- 6. External Integration Layer -->
        <mxCell id="integration_layer" value="🔗 외부 연동 레이어" style="rounded=1;whiteSpace=wrap;html=1;fillColor=#FCE4EC;strokeColor=#C2185B;strokeWidth=2;fontSize=16;fontStyle=1;" vertex="1" parent="1">
          <mxGeometry x="820" y="580" width="500" height="160" as="geometry" />
        </mxCell>
        
        <mxCell id="notion_integration" value="📝 Notion API\nOAuth 2.0\n페이지 생성" style="rounded=1;whiteSpace=wrap;html=1;fillColor=#F48FB1;strokeColor=#C2185B;strokeWidth=2;fontSize=12;" vertex="1" parent="1">
          <mxGeometry x="840" y="620" width="120" height="80" as="geometry" />
        </mxCell>
        
        <mxCell id="jira_integration" value="🎫 JIRA API\nAtlassian OAuth\n이슈 생성" style="rounded=1;whiteSpace=wrap;html=1;fillColor=#F48FB1;strokeColor=#C2185B;strokeWidth=2;fontSize=12;" vertex="1" parent="1">
          <mxGeometry x="980" y="620" width="120" height="80" as="geometry" />
        </mxCell>
        
        <mxCell id="future_integrations" value="🔮 Future\nGitHub, Confluence\nTrello, Discord" style="rounded=1;whiteSpace=wrap;html=1;fillColor=#EC407A;strokeColor=#C2185B;strokeWidth=2;fontSize=12;" vertex="1" parent="1">
          <mxGeometry x="1120" y="620" width="120" height="80" as="geometry" />
        </mxCell>
        
        <mxCell id="integration_metrics" value="📊 연동 성능\n생성률: 99.2%\n평균 응답: 2.3초" style="rounded=1;whiteSpace=wrap;html=1;fillColor=#F8BBD9;strokeColor=#C2185B;strokeWidth=2;fontSize=11;" vertex="1" parent="1">
          <mxGeometry x="1260" y="620" width="120" height="80" as="geometry" />
        </mxCell>
        
        <!-- Data Flow Arrows -->
        <mxCell id="flow1" value="" style="endArrow=classic;html=1;rounded=0;strokeColor=#1976D2;strokeWidth=3;exitX=1;exitY=0.5;exitDx=0;exitDy=0;entryX=0;entryY=0.5;entryDx=0;entryDy=0;" edge="1" parent="1" source="user" target="slack_bot">
          <mxGeometry width="50" height="50" relative="1" as="geometry">
            <mxPoint x="380" y="400" as="sourcePoint" />
            <mxPoint x="430" y="350" as="targetPoint" />
          </mxGeometry>
        </mxCell>
        
        <mxCell id="flow2" value="" style="endArrow=classic;html=1;rounded=0;strokeColor=#F57C00;strokeWidth=3;exitX=0.5;exitY=1;exitDx=0;exitDy=0;entryX=0.5;entryY=0;entryDx=0;entryDy=0;" edge="1" parent="1" source="slack_bot" target="express_server">
          <mxGeometry width="50" height="50" relative="1" as="geometry">
            <mxPoint x="500" y="250" as="sourcePoint" />
            <mxPoint x="170" y="380" as="targetPoint" />
            <Array as="points">
              <mxPoint x="500" y="320" />
              <mxPoint x="170" y="320" />
            </Array>
          </mxGeometry>
        </mxCell>
        
        <mxCell id="flow3" value="" style="endArrow=classic;html=1;rounded=0;strokeColor=#7B1FA2;strokeWidth=3;exitX=1;exitY=0.5;exitDx=0;exitDy=0;entryX=0;entryY=0.5;entryDx=0;entryDy=0;" edge="1" parent="1" source="ai_service" target="ai_server">
          <mxGeometry width="50" height="50" relative="1" as="geometry">
            <mxPoint x="510" y="420" as="sourcePoint" />
            <mxPoint x="840" y="190" as="targetPoint" />
            <Array as="points">
              <mxPoint x="800" y="420" />
              <mxPoint x="800" y="190" />
            </Array>
          </mxGeometry>
        </mxCell>
        
        <mxCell id="flow4" value="" style="endArrow=classic;html=1;rounded=0;strokeColor=#FFA000;strokeWidth=3;exitX=1;exitY=0.5;exitDx=0;exitDy=0;entryX=0;entryY=0.5;entryDx=0;entryDy=0;" edge="1" parent="1" source="ai_server" target="stt_engine">
          <mxGeometry width="50" height="50" relative="1" as="geometry">
            <mxPoint x="990" y="190" as="sourcePoint" />
            <mxPoint x="1010" y="190" as="targetPoint" />
          </mxGeometry>
        </mxCell>
        
        <mxCell id="flow5" value="" style="endArrow=classic;html=1;rounded=0;strokeColor=#FFA000;strokeWidth=3;exitX=1;exitY=0.5;exitDx=0;exitDy=0;entryX=0;entryY=0.5;entryDx=0;entryDy=0;" edge="1" parent="1" source="stt_engine" target="llm_engine">
          <mxGeometry width="50" height="50" relative="1" as="geometry">
            <mxPoint x="1140" y="190" as="sourcePoint" />
            <mxPoint x="1160" y="190" as="targetPoint" />
          </mxGeometry>
        </mxCell>
        
        <mxCell id="flow6" value="" style="endArrow=classic;html=1;rounded=0;strokeColor=#388E3C;strokeWidth=3;exitX=0.5;exitY=1;exitDx=0;exitDy=0;entryX=0.5;entryY=0;entryDx=0;entryDy=0;" edge="1" parent="1" source="express_server" target="postgresql">
          <mxGeometry width="50" height="50" relative="1" as="geometry">
            <mxPoint x="170" y="460" as="sourcePoint" />
            <mxPoint x="160" y="620" as="targetPoint" />
          </mxGeometry>
        </mxCell>
        
        <mxCell id="flow7" value="" style="endArrow=classic;html=1;rounded=0;strokeColor=#C2185B;strokeWidth=3;exitX=0.5;exitY=1;exitDx=0;exitDy=0;entryX=0.5;entryY=0;entryDx=0;entryDy=0;" edge="1" parent="1" source="llm_engine" target="notion_integration">
          <mxGeometry width="50" height="50" relative="1" as="geometry">
            <mxPoint x="1225" y="230" as="sourcePoint" />
            <mxPoint x="900" y="620" as="targetPoint" />
            <Array as="points">
              <mxPoint x="1225" y="560" />
              <mxPoint x="900" y="560" />
            </Array>
          </mxGeometry>
        </mxCell>
        
        <mxCell id="flow8" value="" style="endArrow=classic;html=1;rounded=0;strokeColor=#C2185B;strokeWidth=3;exitX=0.5;exitY=1;exitDx=0;exitDy=0;entryX=0.5;entryY=0;entryDx=0;entryDy=0;" edge="1" parent="1" source="llm_engine" target="jira_integration">
          <mxGeometry width="50" height="50" relative="1" as="geometry">
            <mxPoint x="1225" y="230" as="sourcePoint" />
            <mxPoint x="1040" y="620" as="targetPoint" />
            <Array as="points">
              <mxPoint x="1225" y="560" />
              <mxPoint x="1040" y="560" />
            </Array>
          </mxGeometry>
        </mxCell>
        
        <!-- System Information -->
        <mxCell id="system_info" value="📋 시스템 정보&#xa;&#xa;🚀 기술 스택:&#xa;Frontend: Slack Bot, React&#xa;Backend: Node.js, Express.js, TypeScript&#xa;AI: Python, FastAPI, Qwen3-32B, Whisper&#xa;Database: PostgreSQL, Prisma, Redis&#xa;Cloud: RunPod A100 80GB GPU&#xa;&#xa;⚡ 성능 지표:&#xa;처리 시간: 60-90초&#xa;성공률: 98.5%&#xa;동시 처리: 5세션&#xa;GPU 사용률: 70%&#xa;&#xa;🔒 보안:&#xa;OAuth 2.0, JWT, SSL/TLS&#xa;토큰 자동 갱신&#xa;암호화 통신" style="rounded=1;whiteSpace=wrap;html=1;fillColor=#F5F5F5;strokeColor=#9E9E9E;strokeWidth=2;fontSize=11;align=left;verticalAlign=top;" vertex="1" parent="1">
          <mxGeometry x="80" y="780" width="600" height="200" as="geometry" />
        </mxCell>
        
        <mxCell id="data_flow_info" value="🔄 데이터 플로우&#xa;&#xa;1️⃣ 사용자 입력 → Slack Bot&#xa;2️⃣ Slack → 백엔드 서버&#xa;3️⃣ 백엔드 → AI 서버 (RunPod)&#xa;4️⃣ STT → LLM → TaskMaster&#xa;5️⃣ PRD → Task → Subtask 생성&#xa;6️⃣ 외부 연동 (Notion + JIRA)&#xa;7️⃣ 결과 통합 → 사용자 알림&#xa;&#xa;🔮 향후 계획:&#xa;GitHub, Confluence 연동&#xa;Trello, Discord 연동&#xa;성능 최적화 및 확장" style="rounded=1;whiteSpace=wrap;html=1;fillColor=#E0F2F1;strokeColor=#00695C;strokeWidth=2;fontSize=11;align=left;verticalAlign=top;" vertex="1" parent="1">
          <mxGeometry x="720" y="780" width="600" height="200" as="geometry" />
        </mxCell>
        
      </root>
    </mxGraphModel>
  </diagram>
</mxfile> 